<svg xmlns="http://www.w3.org/2000/svg" style="display:none" aria-hidden="true">
  <!-- Stroke icons (Lucide-inspired, MIT-compatible simple geometry) -->
  <symbol id="icon-castle" viewBox="0 0 24 24" fill="none" stroke="currentColor" stroke-width="2" stroke-linecap="round" stroke-linejoin="round">
    <path d="M4 21V9l4-3 4 3v12M12 21V6l4-3 4 3v15"/>
    <path d="M8 21v-4h0M16 21v-4h0"/>
    <path d="M10 12h0M14 12h0"/>
  </symbol>
  <symbol id="icon-home" viewBox="0 0 24 24" fill="none" stroke="currentColor" stroke-width="2" stroke-linecap="round" stroke-linejoin="round">
    <path d="M3 10.5 12 3l9 7.5V20a1 1 0 0 1-1 1h-5v-6H9v6H4a1 1 0 0 1-1-1z"/>
  </symbol>
  <symbol id="icon-languages" viewBox="0 0 24 24" fill="none" stroke="currentColor" stroke-width="2" stroke-linecap="round" stroke-linejoin="round">
    <path d="m5 8 6 6"/><path d="m4 14 6-6 2-3"/><path d="M2 5h12"/><path d="M7 2h1"/>
    <path d="m22 16-6-6"/><path d="m23 10-6 6-2 3"/><path d="M12 19h12"/><path d="M16 22h1"/>
  </symbol>
  <symbol id="icon-info" viewBox="0 0 24 24" fill="none" stroke="currentColor" stroke-width="2" stroke-linecap="round" stroke-linejoin="round">
    <circle cx="12" cy="12" r="10"/><path d="M12 16v-4"/><path d="M12 8h.01"/>
  </symbol>
  <symbol id="icon-settings" viewBox="0 0 24 24" fill="none" stroke="currentColor" stroke-width="2" stroke-linecap="round" stroke-linejoin="round">
    <circle cx="12" cy="12" r="3"/><path d="M12 1v2M12 21v2M4.22 4.22l1.42 1.42M18.36 18.36l1.42 1.42M1 12h2M21 12h2M4.22 19.78l1.42-1.42M18.36 5.64l1.42-1.42"/>
  </symbol>
  <symbol id="icon-hand" viewBox="0 0 24 24" fill="none" stroke="currentColor" stroke-width="2" stroke-linecap="round" stroke-linejoin="round">
    <path d="M7 11V6a2 2 0 1 1 4 0v2"/><path d="M11 10V5a2 2 0 1 1 4 0v6"/>
    <path d="M15 11V7a2 2 0 1 1 4 0v8a5 5 0 0 1-5 5H9a4 4 0 0 1-4-4v-5a2 2 0 1 1 4 0z"/>
  </symbol>
  <symbol id="icon-play" viewBox="0 0 24 24" fill="none" stroke="currentColor" stroke-width="2" stroke-linecap="round" stroke-linejoin="round">
    <polygon points="8 5 19 12 8 19 8 5"/>
  </symbol>
  <symbol id="icon-pause" viewBox="0 0 24 24" fill="none" stroke="currentColor" stroke-width="2" stroke-linecap="round" stroke-linejoin="round">
    <rect x="6" y="5" width="4" height="14" rx="1"/><rect x="14" y="5" width="4" height="14" rx="1"/>
  </symbol>
  <symbol id="icon-replay" viewBox="0 0 24 24" fill="none" stroke="currentColor" stroke-width="2" stroke-linecap="round" stroke-linejoin="round">
    <path d="M3 12a9 9 0 1 0 3-6.7"/><path d="M3 4v5h5"/>
  </symbol>
  <symbol id="icon-arrow-left" viewBox="0 0 24 24" fill="none" stroke="currentColor" stroke-width="2" stroke-linecap="round" stroke-linejoin="round">
    <path d="m12 19-7-7 7-7"/><path d="M19 12H5"/>
  </symbol>
  <symbol id="icon-upload" viewBox="0 0 24 24" fill="none" stroke="currentColor" stroke-width="2" stroke-linecap="round" stroke-linejoin="round">
    <path d="M12 3v12"/><path d="m7 8 5-5 5 5"/><path d="M5 21h14"/>
  </symbol>
  <symbol id="icon-video" viewBox="0 0 24 24" fill="none" stroke="currentColor" stroke-width="2" stroke-linecap="round" stroke-linejoin="round">
    <rect x="2" y="6" width="20" height="12" rx="2"/><path d="m10 9 6 3-6 3z"/>
  </symbol>
  <symbol id="icon-sun" viewBox="0 0 24 24" fill="none" stroke="currentColor" stroke-width="2" stroke-linecap="round" stroke-linejoin="round">
    <circle cx="12" cy="12" r="4"/><path d="M12 2v2M12 20v2M4.93 4.93l1.41 1.41M17.66 17.66l1.41 1.41M2 12h2M20 12h2M4.93 19.07l1.41-1.41M17.66 6.34l1.41-1.41"/>
  </symbol>
  <symbol id="icon-moon" viewBox="0 0 24 24" fill="none" stroke="currentColor" stroke-width="2" stroke-linecap="round" stroke-linejoin="round">
    <path d="M20 14.5A8.5 8.5 0 0 1 9.5 4 7 7 0 1 0 20 14.5Z"/>
  </symbol>
  <symbol id="icon-search" viewBox="0 0 24 24" fill="none" stroke="currentColor" stroke-width="2" stroke-linecap="round" stroke-linejoin="round">
    <circle cx="11" cy="11" r="7"/><path d="m20 20-3-3"/>
  </symbol>
  <symbol id="icon-clock" viewBox="0 0 24 24" fill="none" stroke="currentColor" stroke-width="2" stroke-linecap="round" stroke-linejoin="round">
    <circle cx="12" cy="12" r="10"/><path d="M12 6v6l4 2"/>
  </symbol>
  <symbol id="icon-link" viewBox="0 0 24 24" fill="none" stroke="currentColor" stroke-width="2" stroke-linecap="round" stroke-linejoin="round">
    <path d="M10 13a5 5 0 0 0 7.54.54l2.92-2.92a5 5 0 0 0-7.07-7.07l-1.6 1.6"/>
    <path d="M14 11a5 5 0 0 0-7.54-.54L3.54 13.38a5 5 0 0 0 7.07 7.07l1.6-1.6"/>
  </symbol>
  <symbol id="icon-book" viewBox="0 0 24 24" fill="none" stroke="currentColor" stroke-width="2" stroke-linecap="round" stroke-linejoin="round">
    <path d="M4 19.5A2.5 2.5 0 0 1 6.5 17H20"/><path d="M4 4.5A2.5 2.5 0 0 1 6.5 2H20v20H6.5A2.5 2.5 0 0 1 4 19.5z"/>
  </symbol>
  <symbol id="icon-users" viewBox="0 0 24 24" fill="none" stroke="currentColor" stroke-width="2" stroke-linecap="round" stroke-linejoin="round">
    <path d="M16 21v-2a4 4 0 0 0-4-4H6a4 4 0 0 0-4 4v2"/><circle cx="9" cy="7" r="4"/>
    <path d="M22 21v-2a4 4 0 0 0-3-3.87"/><path d="M16 3.13a4 4 0 0 1 0 7.75"/>
  </symbol>
  <symbol id="icon-sparkle" viewBox="0 0 24 24" fill="none" stroke="currentColor" stroke-width="2" stroke-linecap="round" stroke-linejoin="round">
    <path d="m12 3 1.4 4.2L18 8.6l-4.2 1.4L12 14l-1.4-4.2L6 8.6l4.2-1.4z"/>
    <path d="M19 14l.7 2.1 2.1.7-2.1.7-.7 2.1-.7-2.1-2.1-.7 2.1-.7z"/>
  </symbol>
</svg>
